<?xml version="1.0" encoding="utf-8"?>
<!-- Generator: Adobe Illustrator 18.0.0, SVG Export Plug-In . SVG Version: 6.00 Build 0)  -->
<!DOCTYPE svg PUBLIC "-//W3C//DTD SVG 1.1//EN" "http://www.w3.org/Graphics/SVG/1.1/DTD/svg11.dtd">
<svg version="1.1" id="Слой_1" xmlns="http://www.w3.org/2000/svg" xmlns:xlink="http://www.w3.org/1999/xlink" x="0px" y="0px"
	 viewBox="0 83.1 1590 876" enable-background="new 0 83.1 1590 876" xml:space="preserve">
<path fill="#000000"    d="M1573.9,846.1V433.7v-79.8h-369.4l-5.1-69.1
	l-97.4-5.6l-4.3-23.6l-60.1-4.5c-7.8-5.7-30-10.4-30-10.4l-35.9-19.9c-14.6-13.8-57.3-35.1-57.3-35.1v-21l-34.6-2.3
	c-15.4-64-62-70-81.7-70c-0.2,0-0.3,0-0.5,0c-0.2,0-0.3,0-0.5,0c-19.9,0-69.6,6.1-84.9,70l-38,2.3v21c0,0-39.3,21.3-53.9,35.1
	l-33.4,19.7c0,0-21.7,4.7-29.5,10.4l-59.9,4.3l-4.2,23.3l-97.4,6.2l-5.1,69.1H14.6v79.8v412.4H3.1v84.6h434.5v7.8h82.6v-7.8h57.6
	v7.8h80.7v-7.8h42.2V754.8l5.7-8.7v-4.7c0,0-9.3-27.5,30.3-63.7c0,0,19.9-20.5,59.8-20.5s57.6,20.5,57.6,20.5
	c39.6,36.3,27.3,63.7,27.3,63.7v4.7l5.7,8.7v175.9h42.2v7.8h80.7v-7.8h57.6v7.8h82.6v-7.8h434.9v-84.6H1573.9z M258.8,717.2H205
	v-80.7h53.9V717.2z M258.8,503.9h-48.1v-100h48.1V503.9z M835.5,501.9h-82.6V375h82.6V501.9z M1306.6,401.9h48.1v100h-48.1V401.9z
	 M1360.4,715.4h-53.9v-80.7h53.9V715.4z"/>
</svg>
